# File created by Blade
# Date/Time:  Thu Jan 22 16:04:59 2015
# Frame Rate: 120.000 fps
#------------------------------------------------------
:FULLY-SPECIFIED
:DEGREES
1336
root 3.425895 37.009277 6.383769 3.009693 -5.807357 1.575482
RightUpLeg 6.392947 -4.400847 -8.759559
RightLeg -6.521800 -0.000000 0.000000
RightFoot -8.147651 -11.123572 20.433758
RightToeBase 10.558719 -0.000000 -0.000000
LeftUpLeg 5.787517 0.716892 7.134092
LeftLeg -4.063514 -0.000000 0.000000
LeftFoot -5.390918 6.484621 -23.030503
LeftToeBase 7.454095 -0.000000 -0.000000
Spine -4.054148 -3.070101 -2.936429
RightShoulder -11.412398 2.238143 -44.301039
RightArm -56.302803 85.274789 -97.831884
RightForeArm 39.773042 0.000000 17.774212
RightHand 12.946327 -0.000000 -14.801672
RightHandThumb1 -24.326973 -0.000000 -32.862282
LeftShoulder -29.215032 16.375276 38.616819
LeftArm 187.539976 -82.112345 -135.732672
LeftForeArm 52.504299 -0.000000 5.154142
LeftHand -13.727135 0.000000 31.108135
LeftHandThumb1 -26.253704 0.000000 33.147579
Head 9.743642 11.289631 4.155553
1337
root 3.421998 37.009235 6.379663 3.012678 -5.803656 1.567987
RightUpLeg 6.388103 -4.381807 -8.747605
RightLeg -6.522795 -0.000000 0.000000
RightFoot -8.151433 -11.115357 20.446823
RightToeBase 10.584444 -0.000000 -0.000000
LeftUpLeg 5.787845 0.762392 7.149135
LeftLeg -4.081186 -0.000000 0.000000
LeftFoot -5.351860 6.455757 -22.992996
LeftToeBase 7.410124 -0.000000 -0.000000
Spine -4.062473 -3.076001 -2.945725
RightShoulder -11.431938 2.234208 -44.322494
RightArm -56.348018 85.278695 -97.806873
RightForeArm 39.766853 -0.000000 17.832458
RightHand 12.935026 0.000000 -14.804110
RightHandThumb1 -24.326973 -0.000000 -32.862282
LeftShoulder -29.238312 16.367706 38.562079
LeftArm 187.661601 -82.066982 -135.751063
LeftForeArm 52.349226 0.000000 5.071295
LeftHand -13.591583 -0.000000 31.214122
LeftHandThumb1 -26.253704 0.000000 33.147579
Head 9.748359 11.302659 4.140813
1338
root 3.417702 37.009768 6.375133 3.016937 -5.782984 1.560850
RightUpLeg 6.386626 -4.371245 -8.730334
RightLeg -6.529920 -0.000000 0.000000
RightFoot -8.149493 -11.147155 20.443335
RightToeBase 10.553379 -0.000000 -0.000000
LeftUpLeg 5.769867 0.764943 7.165534
LeftLeg -4.076249 -0.000000 0.000000
LeftFoot -5.345941 6.446639 -22.998112
LeftToeBase 7.427437 -0.000000 -0.000000
Spine -4.073835 -3.108484 -2.955951
RightShoulder -11.451711 2.247399 -44.327504
RightArm -56.320589 85.306565 -97.738678
RightForeArm 39.713747 -0.000000 17.873373
RightHand 12.980828 -0.000000 -14.721193
RightHandThumb1 -24.326973 -0.000000 -32.862282
LeftShoulder -29.266080 16.382496 38.526106
LeftArm 187.699474 -82.042972 -135.742475
LeftForeArm 52.230870 -0.000000 5.115219
LeftHand -13.701360 0.000000 31.047555
LeftHandThumb1 -26.253704 0.000000 33.147579
Head 9.755485 11.363840 4.159337
1339
root 3.413693 37.009446 6.369645 3.019089 -5.766217 1.557441
RightUpLeg 6.385884 -4.353969 -8.720861
RightLeg -6.536920 -0.000000 0.000000
RightFoot -8.156871 -11.157310 20.466583
RightToeBase 10.538753 -0.000000 -0.000000
LeftUpLeg 5.746303 0.761075 7.177945
LeftLeg -4.055355 -0.000000 0.000000
LeftFoot -5.349753 6.427221 -23.014461
LeftToeBase 7.405151 -0.000000 -0.000000
Spine -4.081807 -3.121359 -2.978086
RightShoulder -11.477189 2.252021 -44.329288
RightArm -56.245950 85.333740 -97.611845
RightForeArm 39.650295 -0.000000 17.936087
RightHand 12.972160 -0.000000 -14.672075
RightHandThumb1 -24.326973 -0.000000 -32.862282
LeftShoulder -29.301623 16.397151 38.499590
LeftArm 187.369515 -81.809157 -135.354362
LeftForeArm 52.297261 0.000000 5.126534
LeftHand -13.724811 0.000000 30.949158
LeftHandThumb1 -26.253704 0.000000 33.147579
Head 9.754986 11.342497 4.153739
1340
root 3.409822 37.009345 6.364352 3.027046 -5.749763 1.551553
RightUpLeg 6.376078 -4.336173 -8.705940
RightLeg -6.538495 -0.000000 0.000000
RightFoot -8.166770 -11.220656 20.471321
RightToeBase 10.461968 -0.000000 -0.000000
LeftUpLeg 5.717977 0.774472 7.192400
LeftLeg -4.034590 -0.000000 0.000000
LeftFoot -5.343076 6.406539 -23.002487
LeftToeBase 7.399612 -0.000000 -0.000000
Spine -4.109027 -3.147057 -2.974955
RightShoulder -11.486229 2.259401 -44.339844
RightArm -55.597913 85.339575 -96.962233
RightForeArm 39.592113 -0.000000 17.938607
RightHand 12.977614 -0.000000 -14.778093
RightHandThumb1 -24.326973 -0.000000 -32.862282
LeftShoulder -29.299348 16.375990 38.486681
LeftArm 187.012536 -81.799561 -134.949500
LeftForeArm 52.221132 -0.000000 5.148364
LeftHand -13.803785 -0.000000 30.833511
LeftHandThumb1 -26.253704 0.000000 33.147579
Head 9.774698 11.462399 4.153917
1341
root 3.406611 37.009980 6.359640 3.021543 -5.722594 1.552400
RightUpLeg 6.380293 -4.335827 -8.697269
RightLeg -6.534798 -0.000000 0.000000
RightFoot -8.173697 -11.212562 20.448702
RightToeBase 10.554391 -0.000000 -0.000000
LeftUpLeg 5.699667 0.749747 7.197839
LeftLeg -4.017910 -0.000000 0.000000
LeftFoot -5.340353 6.407059 -23.022189
LeftToeBase 7.430204 -0.000000 -0.000000
Spine -4.111521 -3.194460 -3.001188
RightShoulder -11.510092 2.288258 -44.304055
RightArm -55.275828 85.401901 -96.639657
RightForeArm 39.532909 0.000000 17.988563
RightHand 13.004873 -0.000000 -14.745072
RightHandThumb1 -24.326973 -0.000000 -32.862282
LeftShoulder -29.326118 16.393599 38.480083
LeftArm 186.720907 -81.734102 -134.637786
LeftForeArm 52.167970 -0.000000 5.232445
LeftHand -13.917889 -0.000000 30.708868
LeftHandThumb1 -26.253704 0.000000 33.147579
Head 9.799709 11.420719 4.148513
1342
root 3.403502 37.009997 6.355141 3.008976 -5.701167 1.554645
RightUpLeg 6.394655 -4.321299 -8.693586
RightLeg -6.540438 -0.000000 0.000000
RightFoot -8.190875 -11.232732 20.467877
RightToeBase 10.574407 -0.000000 -0.000000
LeftUpLeg 5.690933 0.738171 7.202199
LeftLeg -4.000782 -0.000000 0.000000
LeftFoot -5.337804 6.405385 -23.003534
LeftToeBase 7.390987 -0.000000 -0.000000
Spine -4.111325 -3.226960 -3.030320
RightShoulder -11.513672 2.305961 -44.265886
RightArm -54.745191 85.434721 -96.125338
RightForeArm 39.490653 -0.000000 17.994493
RightHand 13.088931 0.000000 -14.714138
RightHandThumb1 -24.326973 -0.000000 -32.862282
LeftShoulder -29.353204 16.396165 38.492187
LeftArm 186.083076 -81.740673 -133.994364
LeftForeArm 51.973602 -0.000000 5.310053
LeftHand -13.975106 -0.000000 30.971829
LeftHandThumb1 -26.253704 0.000000 33.147579
Head 9.848857 11.367673 4.152649
1343
root 3.401200 37.009461 6.351851 2.992590 -5.683655 1.567292
RightUpLeg 6.407238 -4.314084 -8.701326
RightLeg -6.533858 -0.000000 0.000000
RightFoot -8.212426 -11.247377 20.461104
RightToeBase 10.575572 -0.000000 -0.000000
LeftUpLeg 5.684199 0.701065 7.194623
LeftLeg -3.974323 -0.000000 0.000000
LeftFoot -5.318771 6.400578 -22.944111
LeftToeBase 7.303160 -0.000000 -0.000000
Spine -4.119680 -3.256149 -3.068268
RightShoulder -11.508494 2.315212 -44.244617
RightArm -54.691675 85.515414 -96.046828
RightForeArm 39.401391 -0.000000 18.069252
RightHand 13.118371 0.000000 -14.712114
RightHandThumb1 -24.326973 -0.000000 -32.862282
LeftShoulder -29.349286 16.421469 38.516361
LeftArm 185.623483 -81.725631 -133.535435
LeftForeArm 51.713587 0.000000 5.411846
LeftHand -14.139631 0.000000 30.931597
LeftHandThumb1 -26.253704 0.000000 33.147579
Head 9.896302 11.346018 4.179737
1344
root 3.398748 37.009066 6.349243 2.973719 -5.670290 1.563044
RightUpLeg 6.425966 -4.302492 -8.691669
RightLeg -6.534505 -0.000000 0.000000
RightFoot -8.224326 -11.264103 20.452263
RightToeBase 10.569355 -0.000000 -0.000000
LeftUpLeg 5.697690 0.714974 7.204573
LeftLeg -3.979201 -0.000000 0.000000
LeftFoot -5.327424 6.390990 -22.995097
LeftToeBase 7.360673 -0.000000 -0.000000
Spine -4.128856 -3.274779 -3.077150
RightShoulder -11.489645 2.321621 -44.242259
RightArm -54.561329 85.586549 -95.879816
RightForeArm 39.296827 -0.000000 18.165371
RightHand 13.066940 -0.000000 -14.750187
RightHandThumb1 -24.326973 -0.000000 -32.862282
LeftShoulder -29.341505 16.435764 38.520930
LeftArm 185.001067 -81.691406 -132.909271
LeftForeArm 51.596818 -0.000000 5.513148
LeftHand -14.238728 0.000000 30.981693
LeftHandThumb1 -26.253704 0.000000 33.147579
Head 9.978334 11.378803 4.197466
1345
root 3.396330 37.008400 6.346451 2.951198 -5.660683 1.560138
RightUpLeg 6.444686 -4.268967 -8.682201
RightLeg -6.530548 -0.000000 0.000000
RightFoot -8.241820 -11.310343 20.451194
RightToeBase 10.585836 -0.000000 -0.000000
LeftUpLeg 5.713030 0.708764 7.213182
LeftLeg -3.975697 -0.000000 0.000000
LeftFoot -5.329520 6.387749 -22.993762
LeftToeBase 7.356411 -0.000000 -0.000000
Spine -4.135165 -3.294488 -3.081996
RightShoulder -11.469832 2.296191 -44.258843
RightArm -54.696008 85.658806 -95.941263
RightForeArm 39.195523 -0.000000 18.282173
RightHand 13.055969 -0.000000 -14.626704
RightHandThumb1 -24.326973 -0.000000 -32.862282
LeftShoulder -29.378418 16.507411 38.495647
LeftArm 184.346666 -81.488112 -132.217331
LeftForeArm 51.646876 -0.000000 5.532427
LeftHand -14.328984 -0.000000 31.023744
LeftHandThumb1 -26.253704 0.000000 33.147579
Head 10.058825 11.488098 4.223682
1346
root 3.393975 37.007708 6.344617 2.922497 -5.656876 1.555076
RightUpLeg 6.470058 -4.249853 -8.673409
RightLeg -6.526526 -0.000000 0.000000
RightFoot -8.252826 -11.329557 20.446181
RightToeBase 10.556251 -0.000000 -0.000000
LeftUpLeg 5.739799 0.708837 7.224084
LeftLeg -3.978160 -0.000000 0.000000
LeftFoot -5.328649 6.379245 -22.991723
LeftToeBase 7.357416 -0.000000 -0.000000
Spine -4.139386 -3.312643 -3.081979
RightShoulder -11.448965 2.282161 -44.275357
RightArm -53.845441 85.692517 -95.038264
RightForeArm 39.263672 0.000000 18.357962
RightHand 13.005143 -0.000000 -14.706024
RightHandThumb1 -24.326973 -0.000000 -32.862282
LeftShoulder -29.387998 16.554673 38.490112
LeftArm 183.721823 -81.454101 -131.587850
LeftForeArm 51.572941 -0.000000 5.616822
LeftHand -14.386800 -0.000000 31.026706
LeftHandThumb1 -26.253704 0.000000 33.147579
Head 10.153183 11.563594 4.236509
1347
root 3.392405 37.007472 6.342770 2.898077 -5.663306 1.554592
RightUpLeg 6.485368 -4.231859 -8.671687
RightLeg -6.516338 -0.000000 0.000000
RightFoot -8.267172 -11.331448 20.433997
RightToeBase 10.589040 -0.000000 -0.000000
LeftUpLeg 5.767461 0.675833 7.227370
LeftLeg -3.987282 -0.000000 0.000000
LeftFoot -5.332246 6.404696 -23.017964
LeftToeBase 7.359042 -0.000000 -0.000000
Spine -4.148190 -3.312484 -3.088224
RightShoulder -11.460038 2.262257 -44.289386
RightArm -52.661475 85.761502 -93.804109
RightForeArm 39.209674 0.000000 18.448760
RightHand 12.937659 -0.000000 -14.794307
RightHandThumb1 -24.326973 -0.000000 -32.862282
LeftShoulder -29.404647 16.594838 38.480898
LeftArm 183.008938 -81.423784 -130.863285
LeftForeArm 51.501761 -0.000000 5.712968
LeftHand -14.455211 -0.000000 31.007004
LeftHandThumb1 -26.253704 0.000000 33.147579
Head 10.254601 11.627646 4.264188
